# xmcd CD database file
#
# Track frame offsets:
#	150
#	7740
#	27125
#	45547
#	62980
#	76642
#	93122
#	108539
#	123691
#	136978
#	145125
#
# Disc length: 3031 seconds
#
# Revision: 0
# Processed by: cddbd v1.5.2PL0 Copyright (c) Steve Scherf et al.
# Submitted via: CDex 1.77
#
DISCID=840bd50b
DTITLE=Aldrine Guerrero - Acoustic Robot Love Songs
DYEAR=2015
DGENRE=Ukulele
TTITLE0=Photographs
TTITLE1=With Love, From Italy
TTITLE2=Music
TTITLE3=Kisses
TTITLE4=Time
TTITLE5=Addicted
TTITLE6=Change
TTITLE7=Scarlet
TTITLE8=Waiting
TTITLE9=Short Circuit
TTITLE10=Acoustic Robot Podcast
EXTD=YEAR: 2015
EXTT0=
EXTT1=
EXTT2=
EXTT3=
EXTT4=
EXTT5=
EXTT6=
EXTT7=
EXTT8=
EXTT9=
EXTT10=
PLAYORDER=
